<svg xmlns="http://www.w3.org/2000/svg" viewBox="0 0 32 32">
  <!-- Tree edges -->
  <line x1="16" y1="8.5" x2="16" y2="14" stroke="#1a1a1a" stroke-width="1" stroke-linecap="round"/>
  <line x1="16" y1="9" x2="8" y2="14" stroke="#1a1a1a" stroke-width="1" stroke-linecap="round"/>
  <line x1="16" y1="9" x2="24" y2="14" stroke="#1a1a1a" stroke-width="1" stroke-linecap="round"/>
  <line x1="8" y1="18" x2="6" y2="22.5" stroke="#1a1a1a" stroke-width="1" stroke-linecap="round"/>
  <line x1="8" y1="18" x2="10" y2="22.5" stroke="#1a1a1a" stroke-width="1" stroke-linecap="round"/>
  <line x1="16" y1="18" x2="14" y2="22.5" stroke="#1a1a1a" stroke-width="1" stroke-linecap="round"/>
  <line x1="16" y1="18" x2="18" y2="22.5" stroke="#1a1a1a" stroke-width="1" stroke-linecap="round"/>
  <line x1="24" y1="18" x2="22" y2="22.5" stroke="#1a1a1a" stroke-width="1" stroke-linecap="round"/>
  <line x1="24" y1="18" x2="26" y2="22.5" stroke="#1a1a1a" stroke-width="1" stroke-linecap="round"/>
  <!-- Nodes -->
  <circle cx="16" cy="6" r="2.5" fill="#1a1a1a"/>
  <circle cx="8" cy="16" r="2" fill="#1a1a1a"/>
  <circle cx="16" cy="16" r="2" fill="#1a1a1a"/>
  <circle cx="24" cy="16" r="2" fill="#1a1a1a"/>
  <circle cx="6" cy="24" r="1.5" fill="#1a1a1a"/>
  <circle cx="10" cy="24" r="1.5" fill="#1a1a1a"/>
  <circle cx="14" cy="24" r="1.5" fill="#1a1a1a"/>
  <circle cx="18" cy="24" r="1.5" fill="#1a1a1a"/>
  <circle cx="22" cy="24" r="1.5" fill="#1a1a1a"/>
  <circle cx="26" cy="24" r="1.5" fill="#1a1a1a"/>
</svg>
